<svg width="649" height="784" viewBox="0 0 649 784" fill="none" xmlns="http://www.w3.org/2000/svg">
<path d="M817.263 465.246C772.88 542.26 674.228 568.75 597.358 524.283L181.598 283.793C176.45 280.816 169.872 282.583 166.9 287.74L151.972 313.646C149.111 318.615 150.815 324.982 155.766 327.848L1121.34 894.208C1157.35 915.043 1169.69 961.183 1148.9 997.266C1128.1 1033.35 1082.05 1045.71 1046.03 1024.88L80.4629 458.51C42.0234 436.277 16.2001 400.451 5.52814 360.559C-5.1438 320.666 -0.655759 276.705 21.536 238.194L36.6532 211.953C81.0368 134.939 179.688 108.458 256.558 152.916L672.121 393.295C676.567 395.869 682.434 395.277 685.74 391.347C690.014 386.25 688.515 378.776 683.025 375.601L277.071 140.792C241.056 119.957 228.705 73.8171 249.509 37.7342C270.305 1.65127 316.359 -10.7139 352.375 10.1207L758.328 244.93C835.198 289.397 861.63 388.224 817.255 465.246H817.263Z" fill="#AFA0FF" fill-opacity="0.2"/>
</svg>
