<svg width="214" height="37" viewBox="0 0 214 37" fill="none" xmlns="http://www.w3.org/2000/svg">
<g clip-path="url(#clip0_326_4847)">
<path d="M23.9733 10.7727H0.448242V36.9999H6.99598V28.4672H19.5427L25.2668 36.9999H32.5987L26.2862 28.4279C28.2465 28.1132 29.6581 27.366 30.5207 26.1865C31.3833 25.0069 31.8145 23.1195 31.8145 20.6029V18.6368C31.8145 17.1425 31.6577 15.963 31.3833 15.0586C31.1087 14.1542 30.6383 13.3677 29.9717 12.6601C29.2659 11.9916 28.482 11.5196 27.541 11.2051C26.6 10.93 25.4236 10.7727 23.9727 10.7727H23.9733ZM22.9147 22.6868H6.99572V16.5529H22.9149C23.8167 16.5529 24.4439 16.7101 24.7577 16.9853C25.0708 17.2605 25.2668 17.7717 25.2668 18.5189V20.7208C25.2668 21.5073 25.0708 22.0185 24.7572 22.2937C24.4436 22.5689 23.8162 22.6868 22.9147 22.6868ZM41.4477 29.2534V10.7725H34.9V29.0962C34.9 30.5905 35.0176 31.8094 35.2919 32.7138C35.5663 33.6575 36.0369 34.4439 36.7428 35.1125C37.4091 35.8201 38.1933 36.292 39.1343 36.5672C40.0753 36.882 41.2517 36.9999 42.7415 36.9999H58.4247C59.8755 36.9999 61.0517 36.882 61.9927 36.5672C62.9337 36.292 63.7179 35.8201 64.4237 35.1125C65.0901 34.4439 65.5607 33.6575 65.8351 32.7138C66.1094 31.8094 66.2665 30.5905 66.2665 29.0962V10.7725H59.7185V29.2534C59.7185 30.0399 59.5225 30.5512 59.2089 30.8264C58.8954 31.1015 58.2679 31.2197 57.3661 31.2197H43.8001C42.8591 31.2197 42.2319 31.1015 41.9181 30.8264C41.6045 30.5512 41.4477 30.0399 41.4477 29.2534ZM88.4158 36.9999V16.5529H101.08V10.7727H69.2038V16.5526H81.8681V36.9999H88.4158ZM110.563 29.2534V10.7725H104.015V29.0962C104.015 30.5905 104.133 31.8094 104.408 32.7138C104.682 33.6575 105.152 34.4439 105.858 35.1125C106.525 35.8201 107.309 36.292 108.25 36.5672C109.191 36.882 110.367 36.9999 111.857 36.9999H127.54C128.991 36.9999 130.167 36.882 131.108 36.5672C132.049 36.292 132.833 35.8201 133.539 35.1125C134.206 34.4439 134.676 33.6575 134.951 32.7138C135.225 31.8094 135.382 30.5905 135.382 29.0962V10.7725H128.834V29.2534C128.834 30.0399 128.638 30.5512 128.324 30.8264C128.011 31.1015 127.383 31.2197 126.482 31.2197H112.916C111.975 31.2197 111.347 31.1015 111.034 30.8264C110.72 30.5512 110.563 30.0399 110.563 29.2534ZM168.565 18.401V17.8897C168.565 15.4519 167.937 13.6431 166.683 12.5029C165.428 11.3624 163.428 10.7727 160.762 10.7727H138.531V36.9999H162.056C164.722 36.9999 166.722 36.4493 167.977 35.309C169.231 34.1688 169.859 32.36 169.859 29.922V29.3716C169.859 26.9336 169.231 25.2035 167.977 24.1811C167.741 24.0239 167.506 23.906 167.271 23.788C166.939 23.625 166.599 23.4805 166.251 23.3554C167.114 22.8836 167.702 22.2544 168.055 21.5466C168.369 20.839 168.565 19.7771 168.565 18.401ZM145.079 21.2714V16.5529H159.704C160.645 16.5529 161.272 16.7101 161.586 16.9853C161.899 17.2605 162.056 17.7717 162.056 18.5189V19.3051C162.056 20.0918 161.899 20.6029 161.586 20.878C161.272 21.1535 160.645 21.2711 159.704 21.2711L145.079 21.2714ZM145.079 31.2197V26.5009H161.037C161.938 26.5009 162.566 26.6584 162.879 26.9336C163.193 27.2088 163.389 27.7201 163.389 28.4672V29.2534C163.389 30.0399 163.193 30.5512 162.879 30.8264C162.566 31.1015 161.938 31.2197 161.037 31.2197H145.079ZM178.74 16.5529H200.147V10.7727H172.192V36.9999H201.206V31.2197H178.74V26.7764H199.638L200.147 20.9962H178.74V16.5529Z" fill="#1C293E"/>
<path d="M208.97 9.18951C211.501 9.18951 213.552 7.13237 213.552 4.59476C213.552 2.05714 211.501 0 208.97 0C206.44 0 204.389 2.05714 204.389 4.59476C204.389 7.13237 206.44 9.18951 208.97 9.18951Z" fill="#F41240"/>
</g>
<defs>
<clipPath id="clip0_326_4847">
<rect width="214" height="37" fill="white"/>
</clipPath>
</defs>
</svg>
