<svg width="32" height="32" viewBox="0 0 32 32" fill="none" xmlns="http://www.w3.org/2000/svg">
<path d="M22.4398 20.8533C23.3332 20.2666 24.5065 20.9066 24.5065 21.9733V23.6933C24.5065 25.3866 23.1865 27.2 21.5998 27.7333L17.3465 29.1466C16.5998 29.4 15.3865 29.4 14.6532 29.1466L10.3998 27.7333C8.79983 27.2 7.49316 25.3866 7.49316 23.6933V21.96C7.49316 20.9066 8.6665 20.2666 9.5465 20.84L12.2932 22.6266C13.3465 23.3333 14.6798 23.68 16.0132 23.68C17.3465 23.68 18.6798 23.3333 19.7332 22.6266L22.4398 20.8533Z" fill="white"/>
<path d="M26.64 8.61333L18.6534 3.37333C17.2134 2.42666 14.84 2.42666 13.4 3.37333L5.37336 8.61333C2.80003 10.28 2.80003 14.0533 5.37336 15.7333L7.50669 17.12L13.4 20.96C14.84 21.9067 17.2134 21.9067 18.6534 20.96L24.5067 17.12L26.3334 15.92V20C26.3334 20.5467 26.7867 21 27.3334 21C27.88 21 28.3334 20.5467 28.3334 20V13.44C28.8667 11.72 28.32 9.72 26.64 8.61333Z" fill="white"/>
</svg>
