<svg width="218" height="320" viewBox="0 0 218 320" fill="none" xmlns="http://www.w3.org/2000/svg">
<path d="M319.431 156.053C302.083 186.189 263.525 196.554 233.48 179.154L70.9783 85.0495C68.9664 83.8844 66.3954 84.5761 65.2337 86.5941L59.3988 96.7312C58.2807 98.6753 58.9468 101.167 60.8818 102.288L438.279 323.908C452.356 332.06 457.18 350.115 449.052 364.234C440.924 378.354 422.923 383.192 408.846 375.04L31.4493 153.417C16.425 144.717 6.33187 130.698 2.1607 115.088C-2.01047 99.4779 -0.256306 82.276 8.41745 67.2064L14.3261 56.9383C31.6736 26.8023 70.2318 16.4403 100.277 33.8369L262.701 127.898C264.439 128.905 266.732 128.674 268.024 127.136C269.695 125.141 269.109 122.217 266.963 120.974L108.295 29.0923C94.2177 20.9397 89.3904 2.88497 97.5218 -11.2344C105.65 -25.3539 123.65 -30.1924 137.727 -22.0397L296.396 69.8422C326.441 87.2421 336.772 125.914 319.427 156.053H319.431Z" fill="#AFA0FF" fill-opacity="0.2"/>
</svg>
