<svg width="422" height="228" viewBox="0 0 422 228" fill="none" xmlns="http://www.w3.org/2000/svg">
<path d="M413.92 156.994C391.441 196.06 341.477 209.496 302.545 186.941L91.9741 64.9531C89.367 63.4427 86.0355 64.3394 84.5302 66.9553L76.9693 80.096C75.5204 82.6162 76.3837 85.8459 78.891 87.2997L567.924 374.584C586.165 385.152 592.416 408.557 581.884 426.859C571.351 445.162 548.026 451.435 529.786 440.866L40.7521 153.578C21.2836 142.3 8.20487 124.128 2.79984 103.892C-2.60518 83.6565 -0.332123 61.3578 10.9074 41.823L18.5638 28.5126C41.0428 -10.5525 91.0068 -23.9848 129.939 -1.43369L340.41 120.497C342.661 121.803 345.633 121.503 347.307 119.509C349.472 116.924 348.713 113.133 345.932 111.522L140.329 -7.584C122.088 -18.1523 115.833 -41.5565 126.369 -59.8595C136.902 -78.1624 160.227 -84.4346 178.468 -73.8663L384.071 45.2399C423.004 67.7954 436.391 117.925 413.916 156.994H413.92Z" fill="#1A1230" fill-opacity="0.08"/>
</svg>
