<svg width="131" height="61" viewBox="0 0 131 61" fill="none" xmlns="http://www.w3.org/2000/svg">
<mask id="mask0_326_4851" style="mask-type:luminance" maskUnits="userSpaceOnUse" x="0" y="0" width="131" height="61">
<path d="M130.056 0H-1.52588e-05V60.6453H130.056V0Z" fill="white"/>
</mask>
<g mask="url(#mask0_326_4851)">
<path fill-rule="evenodd" clip-rule="evenodd" d="M95.052 30.3937C95.052 25.0385 91.4344 21.2437 86.1499 21.2437C80.8299 21.2437 77.2123 25.003 77.2123 30.3937C77.2123 35.6425 80.8299 39.4728 86.1499 39.4728C91.3989 39.4728 95.052 35.6425 95.052 30.3937ZM86.1499 45.2536C77.7443 45.2536 71.0056 38.9408 71.0056 30.3937C71.0056 21.8821 77.7797 15.4629 86.1499 15.4629C94.4845 15.4629 101.259 21.8821 101.259 30.3937C101.259 38.9408 94.4845 45.2536 86.1499 45.2536ZM104.238 16.6332C104.238 16.1722 104.486 15.8885 104.983 15.8885H109.664C110.125 15.8885 110.409 16.1367 110.409 16.6332V27.8757L120.872 16.3141C121.155 15.9949 121.439 15.8885 121.865 15.8885H128.603C129.065 15.8885 129.1 16.3495 128.816 16.6687L115.694 29.9327L129.526 44.1187C129.809 44.4379 129.774 44.8989 129.313 44.8989H122.645C122.078 44.8989 121.936 44.7571 121.617 44.5088L110.409 32.2379V44.1542C110.409 44.6152 110.161 44.8989 109.664 44.8989H104.983C104.522 44.8989 104.238 44.6507 104.238 44.1542V16.6332Z" fill="black"/>
<path d="M0.463791 29.1531C0.463791 15.5345 0.463791 8.68971 4.68434 4.46937C8.94034 0.249024 15.7499 0.249023 29.3691 0.249023H31.7808C45.4 0.249023 52.2451 0.249024 56.4656 4.46937C60.6862 8.68971 60.6862 15.5345 60.6862 29.1531V31.5647C60.6862 45.1833 60.6862 52.0281 56.4656 56.2484C52.2451 60.4688 45.4 60.4688 31.7808 60.4688H29.3691C15.7499 60.4688 8.90487 60.4688 4.68434 56.2484C0.463791 52.0281 0.463791 45.2188 0.463791 31.5647V29.1531Z" fill="#FF7700"/>
<path d="M30.5754 30.2166C33.5192 30.2166 36.1792 29.0107 38.0944 27.0956C40.0096 25.1805 41.2154 22.5206 41.2154 19.577C41.2154 16.6334 40.0096 13.9735 38.0944 12.0584C36.1792 10.1433 33.5192 8.9375 30.5754 8.9375C27.6317 8.9375 24.9717 10.1433 23.0565 12.0584C21.1413 13.9735 19.9354 16.6334 19.9354 19.577C19.9354 22.5206 21.1413 25.1805 23.0565 27.0956C24.9717 29.0107 27.6672 30.2166 30.5754 30.2166ZM27.1706 16.1369C28.0573 15.2503 29.2632 14.7183 30.5754 14.7183C31.9232 14.7183 33.129 15.2503 33.9802 16.1369C34.8669 17.0235 35.3989 18.2294 35.3989 19.5416C35.3989 20.8892 34.8669 22.0951 33.9802 22.9462C33.0936 23.8328 31.8877 24.3648 30.5754 24.3648C29.2277 24.3648 28.0218 23.8328 27.1706 22.9462C26.284 22.0596 25.752 20.8538 25.752 19.5416C25.752 18.2294 26.3194 17.0235 27.1706 16.1369Z" fill="white"/>
<path d="M44.9047 34.5089L41.7837 30.2531C41.6063 30.0049 41.2517 29.9694 41.0389 30.1822C38.0951 32.7002 34.4775 34.3316 30.5762 34.3316C26.6748 34.3316 23.0572 32.7002 20.1135 30.1822C19.9007 30.0049 19.546 30.0403 19.3687 30.2531L16.2476 34.5089C16.1058 34.7217 16.1412 35.0055 16.3186 35.1828C18.9431 37.3107 21.9932 38.7648 25.1852 39.5095L18.5884 51.1421C18.4111 51.4613 18.6594 51.8868 19.014 51.8868H25.469C25.6818 51.8868 25.8591 51.7805 25.93 51.5677L30.5407 41.2828L35.1514 51.5677C35.2223 51.745 35.3997 51.8868 35.6125 51.8868H42.0674C42.4575 51.8868 42.6703 51.4967 42.493 51.1421L35.8962 39.5095C39.0882 38.7648 42.1383 37.3462 44.7629 35.1828C45.0466 35.0055 45.0821 34.7217 44.9047 34.5089Z" fill="white"/>
</g>
</svg>
