<svg width="146" height="43" viewBox="0 0 146 43" fill="none" xmlns="http://www.w3.org/2000/svg">
<mask id="mask0_326_4889" style="mask-type:luminance" maskUnits="userSpaceOnUse" x="0" y="0" width="146" height="43">
<path d="M145.882 0H0V42.4579H145.882V0Z" fill="white"/>
</mask>
<g mask="url(#mask0_326_4889)">
<path d="M124.611 32.3511H129.69V23.1238H140.804V32.3511H145.883V10.1064H140.804V18.9144H129.69V10.1064H124.611V32.3511Z" fill="#202022"/>
<path d="M122.14 22.247C122.14 14.1769 117.908 9.19434 111.239 9.19434C104.57 9.19434 99.5605 14.7378 99.5605 21.1581C99.5605 27.8941 104.324 33.1571 111.803 33.1571C115.225 33.1571 118.401 32.0353 121.045 29.7891L118.822 26.5272C116.917 27.8966 114.554 28.9477 111.978 28.9477C108.168 28.9477 105.452 26.7723 104.675 23.2274H122.138V22.2445L122.14 22.247ZM104.642 19.2631C105.312 15.7889 107.992 13.4391 111.239 13.4391C114.486 13.4391 116.602 15.6499 117.166 19.2631H104.642Z" fill="#202022"/>
<path d="M87.8815 33.1598C94.126 33.1598 98.0078 30.2137 98.0078 26.2822C98.0078 23.8616 96.6309 21.7569 93.2444 21.0899L93.0336 21.0545V20.8448L93.2444 20.8094C96.4556 20.1778 97.7944 18.212 97.7944 15.8976C97.7944 12.3199 94.4435 9.26514 88.6208 9.26514C84.6703 9.26514 80.824 10.7382 77.6484 13.0905L79.6605 16.5293C81.8834 14.9855 85.0234 13.4771 88.2676 13.4771C91.2298 13.4771 92.8532 14.7404 92.8532 16.4232C92.8532 17.9669 91.4077 19.1242 88.3032 19.2303L82.9403 19.4754V22.8434L88.3032 23.0885C91.583 23.2628 92.8532 24.4226 92.8532 25.8602C92.8532 27.5455 91.0901 29.0186 87.5258 29.0186C83.9615 29.0186 81.0349 27.5809 78.53 25.8602V30.5624C80.0466 31.4391 83.362 33.1598 87.8789 33.1598H87.8815Z" fill="#202022"/>
<path d="M74.0914 27.3332V10.1064H56.3461L55.0403 21.58C54.4763 26.2821 53.0638 27.3332 50.5234 27.3332H50.3125V37.4044H55.3935V32.3511H71.9752V37.4044H77.0561V27.3332H74.0939H74.0914ZM69.046 28.1417H56.6637V27.932C58.1804 27.3711 59.4862 26.4236 59.8749 22.7397L60.7564 14.283H69.046V28.1417Z" fill="#202022"/>
<path d="M21.2587 42.4579H21.4289C29.9065 42.4579 34.8274 41.609 38.3129 38.2435C41.8671 34.6733 42.6876 29.7463 42.6876 21.3477V21.1102C42.6876 12.7141 41.8671 7.82 38.3129 4.21446C34.8299 0.848957 29.8735 0 21.4315 0H21.2613C12.7837 0 7.86024 0.848957 4.3747 4.21446C0.820574 7.78463 0 12.7141 0 21.1102V21.3477C0 29.7438 0.820574 34.6379 4.3747 38.2435C7.82721 41.609 12.7837 42.4579 21.2587 42.4579Z" fill="#202022"/>
<path d="M37.6083 20.908C37.6083 20.7463 37.4762 20.6124 37.3137 20.6048C31.4782 20.385 27.9266 19.6447 25.442 17.1736C22.9523 14.6975 22.2105 11.1627 21.9895 5.34631C21.9844 5.18461 21.8498 5.05322 21.6846 5.05322H21.0038C20.8412 5.05322 20.7066 5.18461 20.6989 5.34631C20.4779 11.1602 19.7361 14.6975 17.2464 17.1736C14.7593 19.6472 11.2102 20.385 5.37477 20.6048C5.21218 20.6099 5.08008 20.7438 5.08008 20.908V21.5851C5.08008 21.7468 5.21218 21.8808 5.37477 21.8883C11.2102 22.1082 14.7618 22.8485 17.2464 25.3195C19.731 27.7906 20.4728 31.3153 20.6964 37.1089C20.7015 37.2706 20.8361 37.402 21.0012 37.402H21.6846C21.8472 37.402 21.9819 37.2706 21.9895 37.1089C22.2131 31.3153 22.9549 27.7906 25.4395 25.3195C27.9266 22.8459 31.4756 22.1082 37.3111 21.8883C37.4737 21.8833 37.6058 21.7494 37.6058 21.5851V20.908H37.6083Z" fill="white"/>
</g>
</svg>
