<svg width="72" height="46" viewBox="0 0 72 46" fill="none" xmlns="http://www.w3.org/2000/svg">
<g clip-path="url(#clip0_326_5121)">
<path d="M27.3016 36.3743C27.1245 36.2829 26.9272 36.2361 26.7098 36.2361C26.4924 36.2361 26.303 36.2822 26.1288 36.3743C25.9516 36.4657 25.8084 36.5886 25.6968 36.7415C25.583 36.8943 25.5067 37.0625 25.462 37.2468H27.9345C27.9079 37.064 27.8388 36.898 27.7293 36.7415C27.622 36.5886 27.4788 36.4657 27.3045 36.3743H27.3016Z" fill="white"/>
<path d="M37.3868 37.0918C37.4797 37.0048 37.5251 36.8921 37.5251 36.7503C37.5251 36.6084 37.4775 36.4943 37.3868 36.4087C37.2939 36.3217 37.1658 36.2815 36.9959 36.2815H35.8215V37.2212H36.9959C37.1636 37.2212 37.2939 37.1795 37.3868 37.094V37.0925V37.0918Z" fill="white"/>
<path d="M37.0631 37.9474H35.8225V39.0576H37.0631C37.2575 39.0561 37.413 39.0049 37.5246 38.9033C37.6355 38.8016 37.6931 38.6663 37.6931 38.5032C37.6931 38.3402 37.6369 38.2049 37.5246 38.1032C37.4137 38.0016 37.2575 37.9504 37.0631 37.9504V37.9474Z" fill="white"/>
<path d="M32.5399 36.4131C32.3512 36.2961 32.1417 36.2376 31.9055 36.2376C31.6694 36.2376 31.457 36.2961 31.264 36.4131C31.0711 36.5301 30.9206 36.6961 30.8111 36.9133C30.7017 37.1291 30.6477 37.3821 30.6477 37.6732C30.6477 37.9642 30.701 38.2078 30.8111 38.4235C30.9206 38.6407 31.0711 38.8075 31.264 38.9237C31.457 39.0422 31.6708 39.0993 31.9055 39.0993C32.1403 39.0993 32.3512 39.0422 32.5399 38.9237C32.7271 38.8067 32.8761 38.6407 32.9841 38.4235C33.0935 38.2078 33.1475 37.9577 33.1475 37.6732C33.1475 37.3887 33.0943 37.1291 32.9841 36.9133C32.8768 36.6961 32.7278 36.5294 32.5399 36.4131Z" fill="white"/>
<path d="M56.4759 37.9474H55.2354V39.0576H56.4759C56.6703 39.0561 56.8259 39.0049 56.9375 38.9033C57.0483 38.8016 57.1059 38.6663 57.1059 38.5032C57.1059 38.3401 57.0498 38.2048 56.9375 38.1032C56.8266 38.0015 56.6703 37.9503 56.4759 37.9503V37.9474Z" fill="white"/>
<path d="M56.799 37.0918C56.8919 37.0047 56.9372 36.8921 56.9372 36.7502C56.9372 36.6084 56.8897 36.4943 56.799 36.4087C56.7061 36.3217 56.5779 36.2815 56.408 36.2815H55.2337V37.2212H56.408C56.5758 37.2212 56.7061 37.1795 56.799 37.094V37.0925V37.0918Z" fill="white"/>
<path d="M51.9307 36.4146C51.7283 36.2961 51.503 36.2361 51.2524 36.2361C51.0019 36.2361 50.7815 36.2961 50.5828 36.4146C50.3805 36.5345 50.2214 36.7035 50.1076 36.9192C49.9924 37.1364 49.9348 37.385 49.9348 37.6717C49.9348 37.9584 49.9924 38.1975 50.1076 38.4133C50.2214 38.6305 50.3805 38.7987 50.5828 38.9186C50.7823 39.0371 51.0062 39.0985 51.2524 39.0985C51.4987 39.0985 51.7291 39.0371 51.9307 38.9186C52.133 38.7987 52.2892 38.6312 52.4059 38.4133C52.5211 38.1961 52.5772 37.9489 52.5772 37.6717C52.5772 37.3945 52.5211 37.1364 52.4059 36.9192C52.2892 36.7035 52.133 36.5338 51.9307 36.4146Z" fill="white"/>
<path d="M48.2014 30.8375C47.8177 30.8375 47.4548 30.9904 47.1819 31.2675L46.1948 32.2716L45.2062 31.2675C44.9377 30.9947 44.5662 30.8375 44.1882 30.8375H12.925V41.7071C12.925 43.3672 14.2513 44.7187 15.8828 44.7187H35.9046C36.5965 44.7187 37.2452 44.9929 37.7334 45.4917L37.9105 45.6701L38.0876 45.4902C38.5758 44.9915 39.2266 44.7187 39.9171 44.7187H59.9382C61.5697 44.7187 62.8959 43.3672 62.8959 41.7071V30.839H48.2014V30.8375ZM23.3578 38.8031C23.1022 39.1585 22.771 39.4459 22.3635 39.666C21.9567 39.8847 21.4844 39.9958 20.9473 39.9958C20.3425 39.9973 19.8039 39.8591 19.3302 39.587C18.8535 39.3142 18.482 38.9369 18.2106 38.4557C17.9391 37.9745 17.8038 37.4355 17.8038 36.8358C17.8038 36.2361 17.9391 35.7001 18.2106 35.2174C18.482 34.7347 18.8535 34.3603 19.3302 34.0846C19.8054 33.8118 20.3439 33.6758 20.9473 33.6758C21.4945 33.6758 21.9711 33.7789 22.3765 33.9873C22.7804 34.1957 23.1066 34.4671 23.3485 34.8042C23.5933 35.1399 23.7704 35.5055 23.8813 35.8968H22.8574C22.7235 35.5428 22.496 35.2452 22.1727 35.0009C21.8523 34.7552 21.4426 34.6338 20.9451 34.6338C20.5426 34.6338 20.1812 34.7281 19.8622 34.9154C19.5433 35.1026 19.2956 35.3622 19.1156 35.6913C18.937 36.0226 18.847 36.4029 18.847 36.8343C18.847 37.2658 18.937 37.6571 19.1127 37.9884C19.2898 38.3182 19.5361 38.5756 19.855 38.7614C20.1754 38.9471 20.5398 39.0385 20.9466 39.0385C21.4542 39.0385 21.8732 38.904 22.2037 38.6327C22.5327 38.3613 22.7674 38.033 22.8999 37.6454H23.9209C23.7999 38.0622 23.6084 38.4469 23.3557 38.8038H23.3571L23.3578 38.8031ZM28.9119 37.9057H25.4322C25.4588 38.1273 25.5322 38.3299 25.6532 38.5113C25.7742 38.6941 25.9261 38.8367 26.109 38.9427C26.2918 39.0473 26.4913 39.1014 26.7051 39.1014C26.9946 39.1014 27.2408 39.0385 27.4424 38.9171C27.6447 38.7957 27.7923 38.6429 27.8866 38.4601H28.8442C28.7038 38.8703 28.4533 39.217 28.0933 39.5029C27.7318 39.7874 27.2718 39.93 26.7066 39.93H26.7094C26.2947 39.9285 25.9203 39.8313 25.5855 39.6346C25.2522 39.4371 24.985 39.1672 24.7906 38.8243C24.5926 38.4798 24.4969 38.0959 24.4969 37.6768C24.4969 37.2578 24.5926 36.8724 24.7906 36.5228C24.985 36.1769 25.2522 35.9056 25.5855 35.7059C25.9218 35.5099 26.2969 35.4119 26.7094 35.4119C27.122 35.4119 27.5043 35.5092 27.8406 35.7059C28.1754 35.9034 28.4382 36.1732 28.6297 36.5199C28.8212 36.8643 28.9126 37.241 28.9126 37.6512V37.9072H28.9112V37.9057H28.9119ZM33.8202 38.836C33.6416 39.1804 33.4011 39.4488 33.0987 39.6389C32.7963 39.8291 32.4644 39.9249 32.1001 39.9249C31.833 39.9249 31.6004 39.8803 31.4053 39.7918C31.2073 39.7018 31.0496 39.6017 30.9258 39.4832C30.8048 39.3662 30.7206 39.2718 30.6752 39.1972H30.65V41.4431H29.7356V35.5106H30.65V36.1337H30.6752C30.7206 36.0606 30.8048 35.9648 30.9258 35.8478C31.0496 35.7308 31.2073 35.6291 31.4053 35.5392C31.5997 35.4507 31.833 35.4075 32.1001 35.4075C32.4658 35.4075 32.7963 35.5033 33.0987 35.6935C33.4011 35.8836 33.6416 36.152 33.8202 36.4965C33.9973 36.8409 34.0873 37.2322 34.0873 37.6695C34.0873 38.1068 33.9973 38.4908 33.8202 38.8338V38.8352V38.836ZM38.2158 39.4846C37.9501 39.7106 37.5814 39.8262 37.1077 39.8262H34.9081V35.5121H37.1048C37.3777 35.5121 37.6167 35.5589 37.8176 35.6547C38.017 35.7491 38.169 35.8763 38.2705 36.0387C38.3706 36.2017 38.421 36.3816 38.421 36.5813C38.421 36.9053 38.3425 37.1342 38.1862 37.268C38.03 37.4026 37.8882 37.4852 37.7586 37.5196H37.7528V37.5452H37.7586C37.837 37.5569 37.9414 37.5913 38.0696 37.6468C38.1963 37.7039 38.3202 37.8114 38.4397 37.9671C38.5563 38.1229 38.6139 38.3299 38.6139 38.5858C38.6139 38.9544 38.4829 39.2557 38.2158 39.4817V39.4846ZM43.3688 39.8247H42.4544V37.279L42.481 36.8519H42.4292L40.4319 39.8232H39.4362V35.5106H40.3506V38.0564L40.3254 38.4835H40.3743L42.3716 35.5106H43.3688V39.8247ZM48.1172 39.097C47.943 39.3442 47.7082 39.5468 47.4138 39.6989C47.12 39.8518 46.7708 39.9278 46.369 39.9278H46.3719C45.9651 39.9264 45.5929 39.8262 45.2566 39.628C44.9204 39.4283 44.6562 39.1577 44.4632 38.8155C44.2702 38.474 44.1738 38.0915 44.1738 37.6724C44.1738 37.2534 44.2695 36.868 44.4632 36.5243C44.6562 36.1798 44.919 35.9085 45.2566 35.7074C45.5914 35.5099 45.963 35.409 46.3719 35.409C46.7809 35.409 47.1034 35.4836 47.3929 35.635C47.6852 35.7849 47.9163 35.9794 48.0891 36.2193C48.2619 36.4592 48.3872 36.721 48.465 37.0047H47.5254C47.4426 36.7875 47.3014 36.6076 47.1063 36.4577C46.9119 36.3092 46.665 36.2361 46.3683 36.2361C46.1379 36.2361 45.927 36.2975 45.734 36.4146C45.541 36.5345 45.3891 36.7034 45.2782 36.9192C45.1674 37.1364 45.1098 37.385 45.1098 37.6717C45.1098 37.9584 45.1659 38.1975 45.2782 38.4147C45.3891 38.6319 45.5439 38.8001 45.734 38.9201C45.927 39.0385 46.1365 39.0985 46.3683 39.0985C46.6707 39.0985 46.9213 39.0202 47.1222 38.863C47.3216 38.7072 47.4627 38.5142 47.5412 38.286H48.4808C48.4131 38.5749 48.2922 38.8447 48.115 39.0919V39.0948H48.1165L48.1172 39.097ZM53.2206 38.8228C53.0262 39.1658 52.7554 39.4356 52.4106 39.6331C52.0671 39.8291 51.6805 39.9271 51.2492 39.9271C50.8179 39.9271 50.4392 39.8298 50.0958 39.6331C49.7523 39.4356 49.4838 39.1658 49.2858 38.8228C49.0914 38.4783 48.992 38.0944 48.992 37.6754C48.992 37.2563 49.0906 36.8709 49.2858 36.5213C49.4838 36.1754 49.7516 35.9041 50.0958 35.7044C50.4406 35.5085 50.823 35.4105 51.2492 35.4105C51.6754 35.4105 52.0664 35.5077 52.4106 35.7044C52.7554 35.9019 53.024 36.1732 53.2206 36.5213C53.4186 36.8687 53.5143 37.2541 53.5143 37.6754C53.5143 38.0966 53.4186 38.4798 53.2206 38.8228ZM57.6284 39.4846C57.3627 39.7106 56.9955 39.8262 56.5203 39.8262H54.3207V35.5121H56.5174C56.7903 35.5121 57.0294 35.5589 57.2302 35.6547C57.4297 35.7491 57.5816 35.8763 57.6831 36.0387C57.7832 36.2017 57.8336 36.3816 57.8336 36.5813C57.8336 36.9053 57.7551 37.1342 57.5989 37.268C57.4426 37.4026 57.3008 37.4852 57.1712 37.5196H57.1654V37.5452H57.1712C57.2497 37.5569 57.3541 37.5913 57.4822 37.6468C57.609 37.7039 57.7328 37.8114 57.8523 37.9671C57.969 38.1229 58.0266 38.3299 58.0266 38.5858C58.0266 38.9544 57.8955 39.2557 57.6284 39.4817V39.4846Z" fill="white"/>
<path d="M44.6861 21.3619C44.4989 21.2448 44.2894 21.1863 44.0532 21.1863C43.8171 21.1863 43.6047 21.2448 43.4117 21.3619C43.2173 21.4789 43.0668 21.6449 42.9574 21.8621C42.8501 22.0778 42.7939 22.3309 42.7939 22.6219C42.7939 22.913 42.8515 23.1565 42.9574 23.3723C43.0668 23.5895 43.2187 23.7562 43.4117 23.8725C43.6047 23.9909 43.8171 24.048 44.0532 24.048C44.2894 24.048 44.4989 23.9909 44.6861 23.8725C44.8733 23.7555 45.0209 23.5895 45.1318 23.3723C45.2398 23.1565 45.2938 22.9064 45.2938 22.6219C45.2938 22.3374 45.2376 22.0778 45.1318 21.8621C45.0223 21.6449 44.8733 21.4781 44.6861 21.3619Z" fill="white"/>
<path d="M34.4334 21.3604C34.2405 21.2434 34.0266 21.1849 33.7905 21.1849C33.5543 21.1849 33.3506 21.2434 33.1634 21.3604C32.9733 21.4774 32.8228 21.6434 32.7134 21.8606C32.6054 22.0763 32.5499 22.3294 32.5499 22.6204C32.5499 22.9115 32.6061 23.155 32.7134 23.3708C32.8228 23.588 32.9733 23.7547 33.1634 23.871C33.352 23.9895 33.5615 24.0465 33.7905 24.0465C34.0194 24.0465 34.2405 23.9895 34.4334 23.871C34.6264 23.754 34.7769 23.588 34.8863 23.3708C34.9943 23.155 35.0498 22.9049 35.0498 22.6204C35.0498 22.3359 34.9936 22.0763 34.8863 21.8606C34.7769 21.6434 34.6264 21.4766 34.4334 21.3604Z" fill="white"/>
<path d="M38.6292 21.2902L37.9149 23.9449H39.9288L39.216 21.2902H38.6292Z" fill="white"/>
<path d="M54.6064 22.0405C54.6993 21.9534 54.7447 21.8408 54.7447 21.6989C54.7447 21.5571 54.6971 21.443 54.6064 21.3574C54.5135 21.2704 54.3854 21.2302 54.2155 21.2302H53.0411V22.1699H54.2155C54.3839 22.1699 54.5135 22.1282 54.6064 22.0427V22.0412V22.0405Z" fill="white"/>
<path d="M49.7387 21.3633C49.5364 21.2448 49.3111 21.1849 49.0598 21.1849C48.8085 21.1849 48.5889 21.2463 48.3902 21.3633C48.1879 21.4833 48.0287 21.6522 47.915 21.8679C47.7998 22.0851 47.7422 22.3338 47.7422 22.6205C47.7422 22.9071 47.7998 23.1463 47.915 23.3635C48.0287 23.5807 48.1879 23.7489 48.3902 23.8681C48.5896 23.9866 48.8135 24.0465 49.0598 24.0465C49.306 24.0465 49.5364 23.9851 49.7387 23.8681C49.9411 23.7482 50.0973 23.5807 50.2139 23.3635C50.3291 23.1463 50.3853 22.8991 50.3853 22.6205C50.3853 22.3418 50.3291 22.0851 50.2139 21.8679C50.0973 21.6522 49.9411 21.4825 49.7387 21.3633Z" fill="white"/>
<path d="M54.2844 22.8947H53.0438V24.0048H54.2844C54.4788 24.0048 54.6343 23.9522 54.7459 23.8505C54.8568 23.7489 54.9144 23.6136 54.9144 23.449C54.9144 23.2845 54.8582 23.1507 54.7459 23.0475C54.635 22.9459 54.4788 22.8947 54.2844 22.8947Z" fill="white"/>
<path d="M58.4338 22.6804H57.5705V23.9617H58.4338C58.6685 23.9617 58.8557 23.9032 58.9867 23.7832C59.1207 23.6633 59.1891 23.5105 59.1891 23.3218C59.1891 23.1331 59.1214 22.9803 58.9867 22.8603C58.8557 22.7419 58.6678 22.6819 58.4338 22.6819V22.6804Z" fill="white"/>
<path d="M55.8105 15.7877C55.7587 15.7892 55.709 15.795 55.6572 15.795H31.0483C30.6703 15.795 30.2973 15.9508 30.0302 16.225L29.0417 17.2321L28.056 16.225C27.7831 15.9493 27.4202 15.795 27.0365 15.795H21.2109V26.6566C21.2109 28.3167 22.5372 29.6682 24.1687 29.6682H44.1897C44.7765 29.6682 45.3554 29.8795 45.8112 30.2525C45.8817 30.311 45.9516 30.3724 46.0178 30.4397L46.1949 30.6181L46.3706 30.4397C46.4354 30.3739 46.5045 30.311 46.5758 30.2525C47.0359 29.8737 47.6025 29.6682 48.2001 29.6682H68.2197C69.8513 29.6682 71.1775 28.3167 71.1775 26.6566V15.787H55.8091H55.8105V15.7877ZM30.3621 24.7734L28.6169 22.2277H27.5873V24.7734H26.5901V18.7964H27.5887V21.2733H28.5773L30.2973 18.7964H31.4436L29.4564 21.6822L31.553 24.7749H30.3629V24.7734H30.3621ZM35.9681 24.772H35.0479V24.1489H35.0213C34.9831 24.2228 34.9017 24.3186 34.7793 24.4348C34.6555 24.5533 34.4964 24.6535 34.2984 24.7435C34.0989 24.8319 33.8693 24.8751 33.6065 24.8751C33.2436 24.8751 32.9102 24.7778 32.6049 24.5877C32.2997 24.3975 32.0577 24.1291 31.8792 23.7847C31.7006 23.4417 31.6106 23.0519 31.6106 22.6204C31.6106 22.189 31.7006 21.7919 31.8792 21.4474C32.0577 21.1029 32.3011 20.8346 32.6049 20.6444C32.9088 20.4543 33.2436 20.3585 33.6065 20.3585C33.8693 20.3585 34.0989 20.4031 34.2984 20.4901C34.4964 20.5801 34.6569 20.6832 34.7793 20.8016C34.9032 20.9216 34.9831 21.0159 35.0213 21.0832H35.0479V20.4601H35.9681V24.7727V24.772ZM41.3112 25.7117H40.4321V24.772H37.4138V25.7117H36.5347V23.9449H36.9948L37.9157 20.4609H39.9295L40.8504 23.9449H41.3119V25.7117H41.3112ZM45.9638 23.7847C45.7853 24.1291 45.5448 24.3975 45.2424 24.5877C44.9429 24.7778 44.6081 24.8736 44.2452 24.8736C43.9766 24.8736 43.7455 24.829 43.5489 24.742C43.3545 24.652 43.1947 24.5519 43.0723 24.4334C42.9485 24.3164 42.8671 24.222 42.8217 24.1474H42.7951V26.3933H41.8836V20.4616H42.7951V21.0847H42.8217C42.8678 21.0108 42.9485 20.915 43.0723 20.7987C43.1961 20.6817 43.3538 20.5801 43.5489 20.4901C43.7469 20.4016 43.9766 20.3585 44.2452 20.3585C44.6081 20.3585 44.9414 20.4543 45.2424 20.6444C45.5448 20.8346 45.7853 21.1029 45.9638 21.4474C46.1424 21.7919 46.2324 22.1831 46.2324 22.6204C46.2324 23.0578 46.1424 23.4417 45.9638 23.7847ZM51.0297 23.7701C50.8353 24.1131 50.5653 24.3829 50.2197 24.5804C49.8763 24.7764 49.4897 24.8744 49.0591 24.8744C48.6285 24.8744 48.2491 24.7771 47.9057 24.5804C47.5622 24.3829 47.2937 24.1131 47.0957 23.7701C46.9013 23.4256 46.8019 23.0417 46.8019 22.6219C46.8019 22.2021 46.9005 21.8174 47.0957 21.4679C47.2937 21.122 47.5615 20.8506 47.9057 20.651C48.2505 20.455 48.6329 20.357 49.0591 20.357C49.4853 20.357 49.8763 20.4543 50.2197 20.651C50.5646 20.8485 50.8332 21.1198 51.0297 21.4679C51.2277 21.8153 51.3235 22.2007 51.3235 22.6219C51.3235 23.0431 51.2277 23.4264 51.0297 23.7701ZM55.4376 24.4334C55.1719 24.6594 54.8033 24.7749 54.3295 24.7749H52.1299V20.4609H54.3281C54.6009 20.4609 54.84 20.5069 55.0409 20.6035C55.2403 20.6978 55.3922 20.825 55.4937 20.9874C55.5938 21.1505 55.6442 21.3304 55.6442 21.53C55.6442 21.8533 55.5657 22.0829 55.4081 22.216C55.2518 22.3506 55.11 22.4332 54.9804 22.4676H54.9746V22.4932H54.9804C55.0589 22.5042 55.1633 22.54 55.2914 22.5948C55.4181 22.6519 55.542 22.7594 55.6615 22.9152C55.7781 23.0709 55.8357 23.2779 55.8357 23.5353C55.8357 23.9039 55.7047 24.2052 55.4376 24.4312V24.4326V24.4334ZM59.9225 24.0546C59.7864 24.2761 59.592 24.4517 59.3414 24.5804C59.0894 24.7076 58.8014 24.772 58.4767 24.772H56.658V20.4609H57.5724V21.8694H58.4767C58.8014 21.8694 59.0887 21.9352 59.3414 22.0654C59.592 22.1955 59.7871 22.374 59.9225 22.5941C60.0578 22.8157 60.1262 23.0585 60.1262 23.321C60.1262 23.5836 60.0585 23.8337 59.9225 24.0538V24.0546ZM61.5374 24.7734H60.6137V20.4609H61.5374V24.7734ZM65.3527 24.7734L64.3793 22.9802H64.0855L63.1221 24.7734H62.0983L63.3583 22.5802L62.166 20.463H63.1898L64.0855 22.1546H64.3793L65.2879 20.463H66.3089L65.1187 22.5802L66.3758 24.7734H65.3534H65.3527Z" fill="white"/>
<path d="M23.355 6.31637C23.1621 6.19936 22.9482 6.14086 22.7121 6.14086C22.4759 6.14086 22.2722 6.19936 22.085 6.31637C21.8949 6.43339 21.7444 6.59939 21.635 6.8166C21.527 7.03234 21.4715 7.28537 21.4715 7.57644C21.4715 7.8675 21.5277 8.11103 21.635 8.32677C21.7444 8.54397 21.8949 8.71071 22.085 8.82699C22.2736 8.94547 22.4831 9.00251 22.7121 9.00251C22.941 9.00251 23.1621 8.94547 23.355 8.82699C23.548 8.70998 23.6985 8.54397 23.8079 8.32677C23.9159 8.11103 23.9714 7.86092 23.9714 7.57644C23.9714 7.29195 23.9152 7.03234 23.8079 6.8166C23.6985 6.59939 23.548 6.43265 23.355 6.31637Z" fill="white"/>
<path d="M18.4 6.31784C18.2113 6.20082 18.0018 6.14232 17.7657 6.14232C17.5295 6.14232 17.3171 6.20082 17.1241 6.31784C16.9312 6.43485 16.7807 6.60086 16.6713 6.81806C16.5618 7.0338 16.5078 7.28683 16.5078 7.5779C16.5078 7.86896 16.5611 8.11249 16.6713 8.32823C16.7807 8.54543 16.9326 8.71218 17.1241 8.82846C17.3171 8.94693 17.5309 9.00397 17.7657 9.00397C18.0004 9.00397 18.2113 8.94693 18.4 8.82846C18.5872 8.71144 18.7362 8.54543 18.8442 8.32823C18.9537 8.11249 19.0077 7.86238 19.0077 7.5779C19.0077 7.29342 18.9544 7.0338 18.8442 6.81806C18.7362 6.60086 18.5872 6.43412 18.4 6.31784Z" fill="white"/>
<path d="M52.3679 6.27909C52.1908 6.18767 51.9935 6.14087 51.776 6.14087C51.5586 6.14087 51.3671 6.18767 51.1936 6.27909C51.0164 6.3705 50.8732 6.49336 50.7616 6.64621C50.6478 6.79906 50.5715 6.96653 50.5254 7.15082H52.9964C52.9698 6.96799 52.9007 6.80198 52.7912 6.64621C52.6839 6.49336 52.5407 6.3705 52.3664 6.27909H52.3679Z" fill="white"/>
<path d="M28.096 7.85214H26.8554V8.96229H28.096C28.294 8.96082 28.4452 8.90963 28.5575 8.80798C28.6684 8.70632 28.726 8.57103 28.726 8.40648C28.726 8.24194 28.6698 8.1081 28.5575 8.00499C28.4466 7.90333 28.2918 7.85214 28.096 7.85214Z" fill="white"/>
<path d="M37.4265 6.27909C37.2494 6.18767 37.0521 6.14087 36.8347 6.14087C36.6172 6.14087 36.4279 6.18767 36.2536 6.27909C36.0765 6.3705 35.9332 6.49336 35.8216 6.64621C35.7079 6.79906 35.6316 6.96653 35.5869 7.15082H38.0594C38.0328 6.96799 37.9636 6.80198 37.8542 6.64621C37.7469 6.49336 37.6036 6.3705 37.4294 6.27909H37.4265Z" fill="white"/>
<path d="M28.4197 6.99647C28.514 6.90945 28.5601 6.79682 28.5601 6.65495C28.5601 6.51307 28.5148 6.39899 28.4197 6.31342C28.3268 6.2264 28.1987 6.18617 28.0288 6.18617H26.8544V7.12592H28.0288C28.1972 7.12592 28.3268 7.08423 28.4197 6.99867V6.99721V6.99647Z" fill="white"/>
<path d="M0.617188 0.745178V11.6148C0.617188 13.2749 1.94343 14.6264 3.57495 14.6264H27.0347C27.628 14.6264 28.191 14.8304 28.6489 15.2034C28.7231 15.2648 28.7951 15.3277 28.8642 15.3979L29.0413 15.5778L29.2185 15.3994C29.2876 15.3292 29.3617 15.2648 29.4366 15.2034C29.8909 14.8362 30.4633 14.6278 31.0458 14.6278H55.6547C55.7166 14.6278 55.7785 14.622 55.8405 14.619C57.3849 14.5203 58.6139 13.2134 58.6139 11.6162V0.745178H0.617188ZM8.32263 9.72944H7.27791L8.15703 7.5267H6.89703L5.42895 3.7509H6.49527L7.56807 6.56941H8.53143L9.60423 3.7509H10.6439L8.32047 9.72798H8.32191V9.72944H8.32263ZM14.5463 9.72944H13.6225V6.24543H11.5835V9.72944H10.672V5.41685H14.5456V9.72944H14.5463ZM19.6799 8.74069C19.5013 9.08515 19.2609 9.35354 18.9585 9.54368C18.6561 9.73383 18.3241 9.82963 17.9598 9.82963C17.6927 9.82963 17.4601 9.78502 17.265 9.69799C17.067 9.60804 16.9093 9.50785 16.7855 9.38938C16.6645 9.27236 16.5803 9.17802 16.5349 9.10343H16.5097V11.3493H15.5953V5.41685H16.5097V6.03993H16.5349C16.581 5.9668 16.6645 5.87027 16.7855 5.75399C16.9093 5.63697 17.067 5.53532 17.265 5.44537C17.4594 5.35688 17.6927 5.31373 17.9598 5.31373C18.3256 5.31373 18.6561 5.40953 18.9585 5.59968C19.2609 5.78982 19.5013 6.05821 19.6799 6.40267C19.857 6.74712 19.947 7.13837 19.947 7.5757C19.947 8.01303 19.857 8.39697 19.6799 8.73996V8.74069ZM24.8905 9.72944H23.9704V9.10635H23.9437C23.9056 9.17949 23.8242 9.27602 23.7018 9.3923C23.578 9.51077 23.4189 9.61096 23.2209 9.70092C23.0214 9.78941 22.7917 9.83255 22.5289 9.83255C22.1661 9.83109 21.8327 9.73529 21.5274 9.54515C21.2221 9.355 20.9802 9.08661 20.8017 8.74216C20.6231 8.39917 20.5331 8.00938 20.5331 7.5779C20.5331 7.14642 20.6231 6.74931 20.8017 6.40486C20.9802 6.06041 21.2236 5.79201 21.5274 5.60187C21.8313 5.41173 22.1661 5.31593 22.5289 5.31593C22.7917 5.31593 23.0214 5.36054 23.2209 5.44756C23.4189 5.53752 23.5794 5.64063 23.7018 5.7591C23.8257 5.87904 23.9056 5.97338 23.9437 6.04066H23.9704V5.41758H24.8905V9.73017V9.72944ZM29.2509 9.38938C28.9837 9.61535 28.6137 9.7309 28.1385 9.7309H25.9432V5.41685H28.1385C28.4113 5.41685 28.6504 5.46365 28.8513 5.55945C29.0536 5.65379 29.2026 5.78104 29.3041 5.9434C29.4042 6.10648 29.4561 6.28639 29.4561 6.48604C29.4561 6.81001 29.3776 7.03891 29.2213 7.17201C29.0651 7.30658 28.9218 7.38922 28.7937 7.42359H28.785V7.44918H28.7937C28.8721 7.45942 28.9751 7.49599 29.1018 7.55084C29.2314 7.60788 29.3538 7.71538 29.4719 7.87116C29.5914 8.02693 29.649 8.23389 29.649 8.49131C29.649 8.8599 29.5144 9.1612 29.2509 9.38718V9.38864V9.38938ZM33.3606 9.72944L32.4405 6.24543H31.8443L30.9205 9.72944H29.9824L31.1387 5.41685H33.1453L34.3017 9.72944H33.3606ZM39.0378 7.81046H35.5581C35.5847 8.03205 35.6581 8.23608 35.7791 8.41599C35.9001 8.59882 36.052 8.74143 36.2349 8.84747C36.4178 8.95205 36.6172 9.00616 36.831 9.00616C37.1205 9.00616 37.3667 8.94327 37.569 8.82187C37.7713 8.70047 37.9182 8.54763 38.0133 8.3648H38.9709C38.8305 8.77507 38.5799 9.12171 38.2199 9.40766C37.8599 9.69214 37.3984 9.83475 36.8332 9.83475H36.8361C36.4213 9.83329 36.0469 9.73602 35.7122 9.5393C35.3788 9.34184 35.1117 9.07198 34.9173 8.72899C34.7193 8.38454 34.6235 8.0006 34.6235 7.58155C34.6235 7.16251 34.7193 6.7771 34.9173 6.42753C35.1117 6.08162 35.3788 5.8103 35.7122 5.61065C36.0484 5.41465 36.4228 5.31666 36.8361 5.31666C37.2493 5.31666 37.631 5.41392 37.9679 5.61065C38.3027 5.8081 38.5655 6.07796 38.757 6.42461C38.9485 6.76906 39.04 7.14569 39.04 7.55596V7.81338V7.81046H39.0386H39.0378ZM43.7747 9.72944H42.8538V7.93551H40.7723V9.72944H39.8608V5.41685H40.7723V7.10839H42.8538V5.41685H43.7747V9.72944ZM48.7564 9.72944H47.842V7.18372L47.8672 6.75662H47.8182L45.8224 9.72944H44.8266V5.41685H45.7382V7.96257L45.713 8.38966H45.7648L47.7577 5.41685H48.7564V9.72944ZM53.98 7.81046H50.5002C50.5269 8.03205 50.6003 8.23608 50.7213 8.41599C50.8422 8.59882 50.9941 8.74143 51.1785 8.84747C51.3614 8.95205 51.5608 9.00616 51.7746 9.00616C52.0641 9.00616 52.3089 8.94327 52.5119 8.82187C52.7142 8.70047 52.8618 8.54763 52.9562 8.3648H53.9123C53.7734 8.77507 53.5213 9.12171 53.1614 9.40766C52.7999 9.69214 52.3398 9.83475 51.7746 9.83475H51.7775C51.3628 9.83329 50.9884 9.73602 50.6536 9.5393C50.3202 9.34184 50.0531 9.07198 49.8587 8.72899C49.6607 8.38454 49.565 8.0006 49.565 7.58155C49.565 7.16251 49.6607 6.7771 49.8587 6.42753C50.0531 6.08162 50.3202 5.8103 50.6536 5.61065C50.9884 5.41465 51.3635 5.31666 51.7775 5.31666C52.1915 5.31666 52.5724 5.41392 52.9086 5.61065C53.2434 5.8081 53.5062 6.07796 53.6978 6.42461C53.8893 6.76906 53.9807 7.14569 53.9807 7.55596V7.81338V7.81046H53.9793H53.98Z" fill="white"/>
</g>
<defs>
<clipPath id="clip0_326_5121">
<rect width="72" height="46" fill="white"/>
</clipPath>
</defs>
</svg>
