<svg width="14" height="14" viewBox="0 0 14 14" fill="none" xmlns="http://www.w3.org/2000/svg">
<g clip-path="url(#clip0_147_2301)">
<path d="M11.6673 5.83329C11.6673 8.74588 8.43623 11.7792 7.35123 12.716C7.25016 12.792 7.12712 12.8331 7.00065 12.8331C6.87419 12.8331 6.75115 12.792 6.65007 12.716C5.56507 11.7792 2.33398 8.74588 2.33398 5.83329C2.33398 4.59562 2.82565 3.40863 3.70082 2.53346C4.57599 1.65829 5.76297 1.16663 7.00065 1.16663C8.23833 1.16663 9.42531 1.65829 10.3005 2.53346C11.1757 3.40863 11.6673 4.59562 11.6673 5.83329Z" stroke="#1A1230" stroke-width="1.16667" stroke-linecap="round" stroke-linejoin="round"/>
<path d="M7 7.58331C7.9665 7.58331 8.75 6.79981 8.75 5.83331C8.75 4.86681 7.9665 4.08331 7 4.08331C6.0335 4.08331 5.25 4.86681 5.25 5.83331C5.25 6.79981 6.0335 7.58331 7 7.58331Z" stroke="#1A1230" stroke-width="1.16667" stroke-linecap="round" stroke-linejoin="round"/>
</g>
<defs>
<clipPath id="clip0_147_2301">
<rect width="14" height="14" fill="white"/>
</clipPath>
</defs>
</svg>
