<svg width="32" height="32" viewBox="0 0 32 32" fill="none" xmlns="http://www.w3.org/2000/svg">
<path d="M20.5198 6.94671L22.3998 10.7067C22.6531 11.2267 23.3331 11.72 23.9064 11.8267L27.3064 12.3867C29.4798 12.7467 29.9864 14.32 28.4264 15.8934L25.7731 18.5467C25.3331 18.9867 25.0798 19.8534 25.2264 20.48L25.9864 23.76C26.5864 26.3467 25.1998 27.36 22.9198 26L19.7331 24.1067C19.1598 23.76 18.1998 23.76 17.6264 24.1067L14.4398 26C12.1598 27.3467 10.7731 26.3467 11.3731 23.76L12.1331 20.48C12.2531 19.84 11.9998 18.9734 11.5598 18.5334L8.90643 15.88C7.34643 14.32 7.85309 12.7467 10.0264 12.3734L13.4264 11.8134C13.9998 11.72 14.6798 11.2134 14.9331 10.6934L16.8131 6.93338C17.8398 4.90671 19.4931 4.90671 20.5198 6.94671Z" fill="white"/>
<path d="M10.6665 7.66663H2.6665C2.11984 7.66663 1.6665 7.21329 1.6665 6.66663C1.6665 6.11996 2.11984 5.66663 2.6665 5.66663H10.6665C11.2132 5.66663 11.6665 6.11996 11.6665 6.66663C11.6665 7.21329 11.2132 7.66663 10.6665 7.66663Z" fill="white"/>
<path d="M6.6665 26.3334H2.6665C2.11984 26.3334 1.6665 25.88 1.6665 25.3334C1.6665 24.7867 2.11984 24.3334 2.6665 24.3334H6.6665C7.21317 24.3334 7.6665 24.7867 7.6665 25.3334C7.6665 25.88 7.21317 26.3334 6.6665 26.3334Z" fill="white"/>
<path d="M3.99984 17H2.6665C2.11984 17 1.6665 16.5467 1.6665 16C1.6665 15.4533 2.11984 15 2.6665 15H3.99984C4.5465 15 4.99984 15.4533 4.99984 16C4.99984 16.5467 4.5465 17 3.99984 17Z" fill="white"/>
</svg>
