<svg width="213" height="50" viewBox="0 0 213 50" fill="none" xmlns="http://www.w3.org/2000/svg">
<path fill-rule="evenodd" clip-rule="evenodd" d="M44.1737 2.30083C32.5481 -0.766943 20.3132 -0.766943 8.68746 2.30083C4.78488 3.33041 1.80423 6.49206 1.02948 10.4236C-0.34316 17.3911 -0.34316 24.5572 1.02948 31.5245C1.80403 35.4561 4.78468 38.6178 8.68746 39.6484C15.7183 41.5037 23.0007 42.2448 30.265 41.8433C31.2079 41.7914 32.1363 42.1 32.8578 42.7042L41.4196 49.8762C41.5765 50.0081 41.797 50.037 41.9832 49.9512C42.1695 49.8653 42.2894 49.6795 42.2894 49.4758V41.1473C42.2894 40.5481 42.7026 40.0219 43.2878 39.8761C43.5837 39.8022 43.8789 39.7262 44.1737 39.6484C48.0766 38.6178 51.0573 35.4561 51.8318 31.5245C53.2044 24.5572 53.2044 17.3911 51.8318 10.4236C51.057 6.49206 48.0764 3.33041 44.1737 2.30083ZM37.4434 9.28572C38.2386 9.28572 38.8835 9.92531 38.8835 10.7143V15.7142C38.8835 16.5033 38.2386 17.1428 37.4434 17.1428H32.4029C31.6075 17.1428 30.9627 17.7825 30.9627 18.5714V32.1428C30.9627 32.9319 30.318 33.5714 29.5226 33.5714H23.7621C22.9667 33.5714 22.3219 32.9319 22.3219 32.1428V18.5714C22.3219 17.7825 21.6772 17.1428 20.8819 17.1428H15.8414C15.0461 17.1428 14.4013 16.5033 14.4013 15.7142V10.7143C14.4013 9.92531 15.0461 9.28572 15.8414 9.28572H37.4434Z" fill="#FC3234"/>
<path d="M74.3463 36.7188C74.084 36.7188 73.8695 36.6348 73.7026 36.4672C73.5358 36.2995 73.4523 36.0839 73.4523 35.8203V16.5578H66.9442C66.7058 16.5578 66.5031 16.4739 66.3363 16.3062C66.1694 16.1386 66.0859 15.9348 66.0859 15.6953V12.4609C66.0859 12.1974 66.1694 11.9818 66.3363 11.8141C66.5031 11.6464 66.7058 11.5625 66.9442 11.5625H85.6819C85.9442 11.5625 86.1588 11.6464 86.3256 11.8141C86.4924 11.9818 86.5759 12.1974 86.5759 12.4609V15.6953C86.5759 15.9348 86.4924 16.1386 86.3256 16.3062C86.1588 16.4739 85.9442 16.5578 85.6819 16.5578H79.2095V35.8203C79.2095 36.0839 79.126 36.2995 78.9592 36.4672C78.7924 36.6348 78.5778 36.7188 78.3156 36.7188H74.3463ZM94.7055 37.0781C91.964 37.0781 89.7827 36.3114 88.1616 34.7781C86.5644 33.2448 85.718 31.0167 85.6227 28.0938C85.6227 27.902 85.6227 27.6505 85.6227 27.3391C85.6227 27.0036 85.6227 26.7402 85.6227 26.5484C85.718 24.7036 86.1353 23.1223 86.8743 21.8047C87.6132 20.463 88.6503 19.4448 89.9853 18.75C91.3204 18.0312 92.8818 17.6719 94.6698 17.6719C96.6723 17.6719 98.341 18.0911 99.676 18.9297C101.035 19.7442 102.048 20.8703 102.716 22.3078C103.407 23.7214 103.753 25.3505 103.753 27.1953V28.0219C103.753 28.2614 103.657 28.4652 103.466 28.6328C103.3 28.8005 103.097 28.8844 102.859 28.8844H91.1654C91.1654 28.9083 91.1654 28.9562 91.1654 29.0281C91.1654 29.0761 91.1654 29.1239 91.1654 29.1719C91.1892 29.9386 91.3322 30.6453 91.5945 31.2922C91.8805 31.9152 92.2739 32.4183 92.7745 32.8016C93.2989 33.1848 93.9188 33.3766 94.634 33.3766C95.2299 33.3766 95.7187 33.2927 96.1001 33.125C96.4815 32.9573 96.7915 32.7536 97.0299 32.5141C97.2921 32.2745 97.4828 32.0708 97.602 31.9031C97.8166 31.6636 97.9834 31.5198 98.1026 31.4719C98.2457 31.4 98.4602 31.3641 98.7463 31.3641H102.465C102.704 31.3641 102.894 31.4359 103.037 31.5797C103.204 31.6995 103.276 31.8792 103.252 32.1187C103.228 32.502 103.025 32.9812 102.644 33.5562C102.286 34.1073 101.75 34.6583 101.035 35.2094C100.32 35.7364 99.4257 36.1797 98.3529 36.5391C97.304 36.8984 96.0882 37.0781 94.7055 37.0781ZM91.1654 25.6141H98.1742V25.5422C98.1742 24.6797 98.0311 23.937 97.745 23.3141C97.4828 22.6672 97.0894 22.1641 96.565 21.8047C96.0406 21.4453 95.4087 21.2656 94.6698 21.2656C93.9308 21.2656 93.2989 21.4453 92.7745 21.8047C92.2501 22.1641 91.8448 22.6672 91.5587 23.3141C91.2964 23.937 91.1654 24.6797 91.1654 25.5422V25.6141ZM108.185 36.7188C107.947 36.7188 107.744 36.6348 107.577 36.4672C107.411 36.2995 107.327 36.0839 107.327 35.8203V18.9297C107.327 18.6661 107.411 18.4505 107.577 18.2828C107.744 18.1152 107.947 18.0312 108.185 18.0312H111.69C111.952 18.0312 112.167 18.1152 112.333 18.2828C112.5 18.4505 112.584 18.6661 112.584 18.9297V20.3313C113.204 19.5645 114.002 18.9297 114.98 18.4266C115.957 17.9234 117.149 17.6719 118.555 17.6719C119.962 17.6719 121.19 17.9953 122.239 18.6422C123.311 19.2652 124.146 20.1875 124.742 21.4094C125.362 22.6073 125.672 24.0687 125.672 25.7937V35.8203C125.672 36.0839 125.576 36.2995 125.385 36.4672C125.219 36.6348 125.016 36.7188 124.778 36.7188H120.987C120.725 36.7188 120.51 36.6348 120.343 36.4672C120.177 36.2995 120.093 36.0839 120.093 35.8203V26.0094C120.093 24.7395 119.783 23.7573 119.163 23.0625C118.567 22.3438 117.685 21.9844 116.517 21.9844C115.397 21.9844 114.503 22.3438 113.835 23.0625C113.168 23.7573 112.834 24.7395 112.834 26.0094V35.8203C112.834 36.0839 112.751 36.2995 112.584 36.4672C112.417 36.6348 112.214 36.7188 111.976 36.7188H108.185ZM140.29 37.0781C138.049 37.0781 136.142 36.7067 134.569 35.9641C133.019 35.1973 131.815 34.0953 130.957 32.6578C130.099 31.1964 129.622 29.4234 129.527 27.3391C129.503 26.3567 129.491 25.3027 129.491 24.1766C129.491 23.0505 129.503 21.9723 129.527 20.9422C129.622 18.8817 130.099 17.1328 130.957 15.6953C131.839 14.2339 133.067 13.1198 134.64 12.3531C136.214 11.5865 138.097 11.2031 140.29 11.2031C141.888 11.2031 143.342 11.4068 144.653 11.8141C145.964 12.2214 147.097 12.8083 148.05 13.575C149.004 14.3417 149.743 15.2401 150.267 16.2703C150.792 17.3005 151.078 18.4505 151.125 19.7203C151.125 19.9359 151.042 20.1156 150.875 20.2594C150.732 20.4031 150.553 20.475 150.339 20.475H146.262C145.976 20.475 145.749 20.4031 145.583 20.2594C145.416 20.1156 145.285 19.8761 145.189 19.5406C144.832 18.127 144.236 17.1567 143.401 16.6297C142.567 16.1027 141.53 15.8391 140.29 15.8391C138.812 15.8391 137.644 16.2464 136.786 17.0609C135.928 17.8755 135.463 19.2292 135.391 21.1219C135.32 23.0864 135.32 25.0989 135.391 27.1594C135.463 29.052 135.928 30.4058 136.786 31.2203C137.644 32.0348 138.812 32.4422 140.29 32.4422C141.53 32.4422 142.567 32.1786 143.401 31.6516C144.26 31.1005 144.856 30.1302 145.189 28.7406C145.285 28.3812 145.416 28.1417 145.583 28.0219C145.749 27.8781 145.976 27.8062 146.262 27.8062H150.339C150.553 27.8062 150.732 27.8781 150.875 28.0219C151.042 28.1656 151.125 28.3453 151.125 28.5609C151.078 29.8308 150.792 30.9808 150.267 32.0109C149.743 33.0411 149.004 33.9395 148.05 34.7062C147.097 35.473 145.964 36.0598 144.653 36.4672C143.342 36.8745 141.888 37.0781 140.29 37.0781ZM155.644 36.7188C155.382 36.7188 155.167 36.6348 155 36.4672C154.833 36.2995 154.75 36.0839 154.75 35.8203V12.1016C154.75 11.838 154.833 11.6224 155 11.4547C155.167 11.287 155.382 11.2031 155.644 11.2031H159.506C159.744 11.2031 159.947 11.287 160.114 11.4547C160.28 11.6224 160.364 11.838 160.364 12.1016V20.1875C161.008 19.4208 161.794 18.8098 162.724 18.3547C163.654 17.8995 164.775 17.6719 166.086 17.6719C167.493 17.6719 168.732 17.9953 169.804 18.6422C170.901 19.2652 171.759 20.1875 172.379 21.4094C173 22.6073 173.309 24.0687 173.309 25.7937V35.8203C173.309 36.0839 173.225 36.2995 173.059 36.4672C172.892 36.6348 172.678 36.7188 172.415 36.7188H168.517C168.279 36.7188 168.076 36.6348 167.909 36.4672C167.743 36.2995 167.659 36.0839 167.659 35.8203V26.0094C167.659 24.7395 167.35 23.7573 166.729 23.0625C166.109 22.3438 165.227 21.9844 164.083 21.9844C162.962 21.9844 162.057 22.3438 161.365 23.0625C160.698 23.7573 160.364 24.7395 160.364 26.0094V35.8203C160.364 36.0839 160.28 36.2995 160.114 36.4672C159.947 36.6348 159.744 36.7188 159.506 36.7188H155.644ZM183.059 37.0781C181.796 37.0781 180.663 36.8386 179.662 36.3594C178.66 35.8563 177.863 35.1855 177.266 34.3469C176.67 33.5083 176.372 32.5739 176.372 31.5437C176.372 29.8427 177.051 28.5011 178.41 27.5187C179.794 26.5364 181.605 25.8656 183.845 25.5062L188.53 24.8234V24.1766C188.53 23.2422 188.315 22.5234 187.886 22.0203C187.457 21.5172 186.706 21.2656 185.633 21.2656C184.847 21.2656 184.215 21.4214 183.738 21.7328C183.262 22.0442 182.892 22.4516 182.63 22.9547C182.44 23.2661 182.165 23.4219 181.807 23.4219H178.41C178.149 23.4219 177.945 23.35 177.802 23.2063C177.659 23.0386 177.6 22.8469 177.623 22.6313C177.623 22.2239 177.779 21.7448 178.088 21.1938C178.399 20.6427 178.875 20.1036 179.519 19.5766C180.162 19.0255 180.985 18.5703 181.986 18.2109C182.987 17.8516 184.215 17.6719 185.669 17.6719C187.171 17.6719 188.458 17.8516 189.531 18.2109C190.604 18.5703 191.462 19.0734 192.106 19.7203C192.749 20.3672 193.227 21.1219 193.536 21.9844C193.847 22.823 194.001 23.7333 194.001 24.7156V35.8203C194.001 36.0839 193.919 36.2995 193.751 36.4672C193.584 36.6348 193.37 36.7188 193.107 36.7188H189.603C189.365 36.7188 189.163 36.6348 188.995 36.4672C188.828 36.2995 188.744 36.0839 188.744 35.8203V34.4906C188.435 34.9458 188.018 35.377 187.493 35.7844C186.969 36.1677 186.338 36.4792 185.598 36.7188C184.882 36.9583 184.037 37.0781 183.059 37.0781ZM184.489 33.3406C185.276 33.3406 185.98 33.173 186.599 32.8375C187.219 32.502 187.707 31.987 188.065 31.2922C188.423 30.5973 188.601 29.723 188.601 28.6687V28.0578L185.276 28.5969C183.988 28.8125 183.048 29.1359 182.451 29.5672C181.855 29.9984 181.557 30.5255 181.557 31.1484C181.557 31.6036 181.689 31.9989 181.95 32.3344C182.236 32.6698 182.606 32.9214 183.059 33.0891C183.513 33.2567 183.988 33.3406 184.489 33.3406ZM207.131 36.7188C205.654 36.7188 204.39 36.4792 203.34 36C202.292 35.4969 201.493 34.7302 200.944 33.7C200.421 32.6698 200.158 31.3761 200.158 29.8187V22.2719H197.369C197.107 22.2719 196.893 22.188 196.725 22.0203C196.559 21.8527 196.475 21.637 196.475 21.3734V18.9297C196.475 18.6661 196.559 18.4505 196.725 18.2828C196.893 18.1152 197.107 18.0312 197.369 18.0312H200.158V12.1016C200.158 11.838 200.242 11.6224 200.408 11.4547C200.599 11.287 200.814 11.2031 201.052 11.2031H204.556C204.819 11.2031 205.033 11.287 205.2 11.4547C205.368 11.6224 205.45 11.838 205.45 12.1016V18.0312H209.92C210.159 18.0312 210.362 18.1152 210.528 18.2828C210.696 18.4505 210.778 18.6661 210.778 18.9297V21.3734C210.778 21.637 210.696 21.8527 210.528 22.0203C210.362 22.188 210.159 22.2719 209.92 22.2719H205.45V29.3875C205.45 30.298 205.606 31.0167 205.915 31.5437C206.249 32.0469 206.821 32.2984 207.631 32.2984H210.242C210.481 32.2984 210.683 32.3823 210.85 32.55C211.018 32.7177 211.1 32.9214 211.1 33.1609V35.8203C211.1 36.0839 211.018 36.2995 210.85 36.4672C210.683 36.6348 210.481 36.7188 210.242 36.7188H207.131Z" fill="#282F3D"/>
</svg>
