<svg width="212" height="75" viewBox="0 0 212 75" fill="none" xmlns="http://www.w3.org/2000/svg">
<path d="M37.4999 69C54.8969 69 68.9999 54.897 68.9999 37.5C68.9999 20.103 54.8969 6 37.4999 6C20.103 6 5.99994 20.103 5.99994 37.5C5.99994 54.897 20.103 69 37.4999 69Z" fill="url(#paint0_linear_326_4881)"/>
<path fill-rule="evenodd" clip-rule="evenodd" d="M20.2279 37.1567C29.4032 33.1334 35.5363 30.5329 38.6275 29.2572C47.3611 25.6264 49.1765 24.9885 50.3541 24.9395C50.5994 24.9395 51.1882 24.9885 51.5807 25.2829C51.8751 25.5282 51.9733 25.8717 52.0223 26.117C52.0714 26.3624 52.1205 26.9021 52.0714 27.3437C51.5807 32.2993 49.5691 44.4184 48.4896 49.9628C48.048 52.318 47.1649 53.103 46.3307 53.2011C44.5153 53.3483 43.0924 51.9745 41.3261 50.846C38.5784 49.0306 37.0083 47.9021 34.3097 46.1357C31.2186 44.075 33.2303 42.9465 34.9966 41.131C35.4382 40.6404 43.534 33.3296 43.6812 32.6427C43.6812 32.5446 43.7303 32.2502 43.534 32.103C43.3377 31.9558 43.0924 32.0049 42.8962 32.0539C42.6018 32.103 38.1859 35.0469 29.5994 40.8367C28.3237 41.7198 27.1952 42.1124 26.1648 42.1124C25.0363 42.1124 22.8775 41.4745 21.2583 40.9348C19.2957 40.2969 17.7256 39.9535 17.8728 38.874C17.9709 38.3343 18.756 37.7455 20.2279 37.1567Z" fill="white"/>
<path d="M92.516 47.5V31.932H87.14V27.9H102.428V31.932H97.024V47.5H92.516ZM115.817 40.052C115.817 40.612 115.78 41.2373 115.705 41.928H105.737C105.775 42.8053 106.073 43.4867 106.633 43.972C107.193 44.4573 107.949 44.7 108.901 44.7C110.208 44.7 111.048 44.28 111.421 43.44H115.621C115.416 44.7653 114.688 45.848 113.437 46.688C112.205 47.5093 110.693 47.92 108.901 47.92C106.605 47.92 104.795 47.2853 103.469 46.016C102.144 44.7467 101.481 42.992 101.481 40.752C101.481 38.5493 102.144 36.8133 103.469 35.544C104.795 34.256 106.559 33.612 108.761 33.612C110.852 33.612 112.551 34.2093 113.857 35.404C115.164 36.5987 115.817 38.148 115.817 40.052ZM105.737 39.268H111.589C111.571 38.372 111.319 37.6813 110.833 37.196C110.348 36.7107 109.648 36.468 108.733 36.468C107.819 36.468 107.091 36.7293 106.549 37.252C106.027 37.756 105.756 38.428 105.737 39.268ZM118.268 47.5V27.9H122.552V47.5H118.268ZM139.36 40.052C139.36 40.612 139.323 41.2373 139.248 41.928H129.28C129.318 42.8053 129.616 43.4867 130.176 43.972C130.736 44.4573 131.492 44.7 132.444 44.7C133.751 44.7 134.591 44.28 134.964 43.44H139.164C138.959 44.7653 138.231 45.848 136.98 46.688C135.748 47.5093 134.236 47.92 132.444 47.92C130.148 47.92 128.338 47.2853 127.012 46.016C125.687 44.7467 125.024 42.992 125.024 40.752C125.024 38.5493 125.687 36.8133 127.012 35.544C128.338 34.256 130.102 33.612 132.304 33.612C134.395 33.612 136.094 34.2093 137.4 35.404C138.707 36.5987 139.36 38.148 139.36 40.052ZM129.28 39.268H135.132C135.114 38.372 134.862 37.6813 134.376 37.196C133.891 36.7107 133.191 36.468 132.276 36.468C131.362 36.468 130.634 36.7293 130.092 37.252C129.57 37.756 129.299 38.428 129.28 39.268ZM151.799 34.004H156.083V46.576C156.083 49.1893 155.215 51.1027 153.479 52.316C152.34 53.1187 150.735 53.52 148.663 53.52C146.628 53.52 145.004 53.156 143.791 52.428C143.1 51.9987 142.531 51.448 142.083 50.776C141.635 50.104 141.402 49.404 141.383 48.676H145.751C145.956 49.8147 146.908 50.384 148.607 50.384C150.735 50.384 151.799 49.292 151.799 47.108V45.316C151.463 45.9693 150.894 46.5013 150.091 46.912C149.307 47.304 148.467 47.5 147.571 47.5C145.611 47.5 144.052 46.8653 142.895 45.596C141.738 44.308 141.159 42.6467 141.159 40.612C141.159 38.596 141.756 36.9347 142.951 35.628C144.146 34.3027 145.704 33.64 147.627 33.64C148.56 33.64 149.4 33.8547 150.147 34.284C150.912 34.6947 151.463 35.2453 151.799 35.936V34.004ZM148.747 44.196C149.736 44.196 150.52 43.86 151.099 43.188C151.696 42.516 151.995 41.676 151.995 40.668C151.995 39.66 151.696 38.82 151.099 38.148C150.52 37.476 149.736 37.14 148.747 37.14C147.795 37.14 147.02 37.476 146.423 38.148C145.844 38.8013 145.555 39.6413 145.555 40.668C145.555 41.6947 145.844 42.544 146.423 43.216C147.02 43.8693 147.795 44.196 148.747 44.196ZM159.612 47.5V34.004H163.896V36.832C164.12 35.8613 164.577 35.1147 165.268 34.592C165.977 34.0507 166.761 33.78 167.62 33.78C168.068 33.78 168.441 33.8173 168.74 33.892V37.868C168.236 37.812 167.806 37.784 167.452 37.784C165.081 37.784 163.896 39.2867 163.896 42.292V47.5H159.612ZM176.062 47.864C174.102 47.864 172.553 47.2013 171.414 45.876C170.275 44.5507 169.706 42.8427 169.706 40.752C169.706 38.6987 170.294 37 171.47 35.656C172.646 34.312 174.195 33.64 176.118 33.64C177.07 33.64 177.919 33.8453 178.666 34.256C179.413 34.6667 179.973 35.2267 180.346 35.936V34.004H184.602V47.5H180.346V45.596C179.973 46.268 179.394 46.8187 178.61 47.248C177.845 47.6587 176.995 47.864 176.062 47.864ZM177.294 44.308C178.321 44.308 179.114 43.972 179.674 43.3C180.234 42.628 180.514 41.7787 180.514 40.752C180.514 39.744 180.234 38.904 179.674 38.232C179.114 37.56 178.321 37.224 177.294 37.224C176.323 37.224 175.539 37.5507 174.942 38.204C174.363 38.8573 174.074 39.7067 174.074 40.752C174.074 41.7973 174.363 42.656 174.942 43.328C175.539 43.9813 176.323 44.308 177.294 44.308ZM188.159 47.5V34.004H192.443V35.964C192.741 35.2733 193.227 34.7133 193.899 34.284C194.589 33.8547 195.392 33.64 196.307 33.64C198.435 33.64 199.844 34.4707 200.535 36.132C200.908 35.3853 201.477 34.788 202.243 34.34C203.008 33.8733 203.876 33.64 204.847 33.64C208.039 33.64 209.635 35.4693 209.635 39.128V47.5H205.323V39.912C205.323 38.1387 204.651 37.252 203.307 37.252C201.795 37.252 201.039 38.3533 201.039 40.556V47.5H196.727V39.884C196.727 38.1293 196.064 37.252 194.739 37.252C193.992 37.252 193.423 37.504 193.031 38.008C192.639 38.4933 192.443 39.3427 192.443 40.556V47.5H188.159Z" fill="#282F3D"/>
<defs>
<linearGradient id="paint0_linear_326_4881" x1="5.99994" y1="37.4772" x2="68.9544" y2="37.4772" gradientUnits="userSpaceOnUse">
<stop stop-color="#2AABEE"/>
<stop offset="1" stop-color="#229ED9"/>
</linearGradient>
</defs>
</svg>
