<svg width="205" height="44" viewBox="0 0 205 44" fill="none" xmlns="http://www.w3.org/2000/svg">
<path d="M71.8559 32.6058H66.3874L58.6065 10.8691H62.6375L68.856 28.7826H69.481L75.9182 10.8691H79.8867L71.8559 32.6058Z" fill="black"/>
<path d="M90.2979 21.3521L100.422 32.6058H95.4852L87.2355 23.2945H86.2981V32.6058H82.5482V10.8691H86.2981V19.718H87.2043L95.0164 10.8691H99.6412L90.2979 21.3521Z" fill="black"/>
<path d="M121.935 21.4446C123.122 21.794 124.049 22.4209 124.716 23.3253C125.403 24.2092 125.747 25.278 125.747 26.5319C125.747 27.7241 125.445 28.7826 124.841 29.7076C124.237 30.612 123.393 31.3211 122.31 31.835C121.226 32.3489 119.976 32.6058 118.56 32.6058H109.341V10.8691H117.935C119.331 10.8691 120.57 11.1261 121.653 11.6399C122.737 12.1333 123.58 12.8321 124.185 13.7365C124.789 14.6409 125.091 15.6584 125.091 16.7889C125.091 17.8783 124.809 18.8341 124.247 19.6563C123.685 20.4785 122.914 21.0746 121.935 21.4446ZM113.091 14.1065V20.0571H117.935C118.935 20.0571 119.747 19.7899 120.372 19.2555C120.997 18.7005 121.31 17.9811 121.31 17.0972C121.31 16.2134 120.997 15.494 120.372 14.939C119.747 14.384 118.935 14.1065 117.935 14.1065H113.091ZM118.56 29.3684C119.539 29.3684 120.341 29.091 120.966 28.536C121.591 27.9604 121.903 27.2205 121.903 26.3161C121.903 25.4322 121.591 24.7128 120.966 24.1578C120.341 23.5823 119.539 23.2945 118.56 23.2945H113.091V29.3684H118.56Z" fill="black"/>
<path d="M134.263 32.6058H129.17V16.5731H132.607V28.4743H133.107L139.169 16.5731H144.263V32.6058H140.825V20.7046H140.325L134.263 32.6058Z" fill="black"/>
<path d="M146.615 37.3848V29.3684H147.021C148.688 29.3684 149.667 27.8371 149.959 24.7745L150.771 16.5731H162.677V29.3684H165.489V37.3848H161.896V32.6058H150.209V37.3848H146.615ZM159.083 29.3684V19.8105H154.084L153.584 24.7128C153.459 25.9666 153.281 26.9533 153.052 27.6727C152.823 28.3921 152.5 28.9573 152.084 29.3684H159.083Z" fill="black"/>
<path d="M183.618 24.4045C183.618 24.7128 183.597 25.0931 183.555 25.5453H170.493C170.66 26.7991 171.181 27.8063 172.056 28.5668C172.931 29.3068 174.045 29.6768 175.399 29.6768C176.316 29.6768 177.139 29.5021 177.868 29.1526C178.618 28.8032 179.191 28.3304 179.587 27.7343L182.962 28.2893C182.378 29.7693 181.368 30.9101 179.93 31.7117C178.514 32.5133 176.931 32.9141 175.181 32.9141C173.556 32.9141 172.098 32.5647 170.806 31.8659C169.535 31.1464 168.535 30.1598 167.806 28.906C167.098 27.6316 166.744 26.1927 166.744 24.5895C166.744 22.9862 167.098 21.5576 167.806 20.3038C168.535 19.0294 169.535 18.0428 170.806 17.3439C172.098 16.6245 173.556 16.2648 175.181 16.2648C176.806 16.2648 178.253 16.6245 179.524 17.3439C180.816 18.0428 181.816 19.0191 182.524 20.273C183.253 21.5062 183.618 22.8834 183.618 24.4045ZM175.181 19.348C174.097 19.348 173.15 19.6563 172.337 20.273C171.545 20.8896 171.004 21.7221 170.712 22.7704H179.712C179.399 21.7426 178.837 20.9204 178.024 20.3038C177.233 19.6666 176.285 19.348 175.181 19.348Z" fill="black"/>
<path d="M194.168 32.9141C192.501 32.9141 191.001 32.5647 189.668 31.8659C188.355 31.1464 187.324 30.1598 186.574 28.906C185.845 27.6316 185.481 26.1927 185.481 24.5895C185.481 22.9862 185.845 21.5576 186.574 20.3038C187.324 19.0294 188.355 18.0428 189.668 17.3439C191.001 16.6245 192.501 16.2648 194.168 16.2648C195.834 16.2648 197.324 16.6245 198.636 17.3439C199.969 18.0428 201.001 19.0294 201.73 20.3038C202.48 21.5576 202.855 22.9862 202.855 24.5895C202.855 26.1927 202.48 27.6316 201.73 28.906C201.001 30.1598 199.969 31.1464 198.636 31.8659C197.324 32.5647 195.834 32.9141 194.168 32.9141ZM194.168 29.6768C195.626 29.6768 196.813 29.2143 197.73 28.2893C198.647 27.3438 199.105 26.1105 199.105 24.5895C199.105 23.0684 198.647 21.8454 197.73 20.9204C196.813 19.9749 195.626 19.5021 194.168 19.5021C192.709 19.5021 191.522 19.9749 190.605 20.9204C189.689 21.8454 189.23 23.0684 189.23 24.5895C189.23 26.1105 189.689 27.3438 190.605 28.2893C191.522 29.2143 192.709 29.6768 194.168 29.6768Z" fill="black"/>
<path d="M0 20.8678C0 11.0295 0 6.11253 3.09754 3.05626C6.19508 0 11.1785 0 21.1496 0H22.9121C32.8833 0 37.8666 0 40.9642 3.05626C44.0617 6.11253 44.0617 11.0295 44.0617 20.8678V22.6068C44.0617 32.4451 44.0617 37.3621 40.9642 40.4183C37.8666 43.4746 32.8833 43.4746 22.9121 43.4746H21.1496C11.1785 43.4746 6.19508 43.4746 3.09754 40.4183C0 37.3621 0 32.4451 0 22.6068V20.8678Z" fill="#0077FF"/>
<path d="M25.7012 0C17.563 0.0260847 13.2317 0.295627 10.4382 3.05192C7.3407 6.10818 7.3407 11.0252 7.3407 20.8635V22.6024C7.3407 32.4407 7.3407 37.3577 10.4382 40.414C13.2317 43.1703 17.563 43.4398 25.7012 43.4659C33.8394 43.4398 38.1707 43.1703 40.9642 40.414C44.0617 37.3577 44.0617 32.4407 44.0617 22.6024V20.8635C44.0617 11.0252 44.0617 6.10818 40.9642 3.05192C38.1707 0.299975 33.8394 0.0304322 25.7012 0Z" fill="#FF2B42"/>
<path d="M31.09 17.8726C33.3195 19.142 34.4298 19.7768 34.8044 20.6028C35.1304 21.3245 35.1304 22.1505 34.8044 22.8722C34.4298 23.7025 33.3151 24.3329 31.09 25.6024L24.9874 29.0803C22.7579 30.3498 21.6475 30.9845 20.7311 30.8889C19.9335 30.8063 19.2109 30.3933 18.7395 29.7542C18.1975 29.0195 18.1975 27.75 18.1975 25.2154V18.2595C18.1975 15.7206 18.1975 14.4511 18.7395 13.7208C19.2109 13.0817 19.9335 12.6687 20.7311 12.5861C21.6431 12.4904 22.7579 13.1252 24.9874 14.3946L31.09 17.8726Z" fill="white"/>
</svg>
